<svg width="823" height="529" viewBox="0 0 823 529" fill="none" xmlns="http://www.w3.org/2000/svg">
<path opacity="0.1" d="M444.618 365.611V209.182C444.618 206.496 443.228 203.996 440.82 202.699L305.416 124.531C303.1 123.142 300.229 123.142 297.914 124.531L162.509 202.699C160.194 204.088 158.712 206.496 158.712 209.182V365.611C158.712 368.297 160.101 370.797 162.509 372.094L297.821 450.354C300.137 451.744 303.008 451.744 305.323 450.354L440.82 372.094C443.136 370.797 444.618 368.297 444.618 365.611Z" fill="#00AA69"/>
<path opacity="0.2" d="M529.639 299.39C528.435 296.519 527.231 293.463 526.027 290.406C519.544 273.458 514.265 254.471 510.653 233.17C510.56 232.799 510.468 232.336 510.468 231.966C505.837 203.996 504.263 172.043 506.763 135.645C507.967 117.492 510.283 98.2281 513.709 77.8526C513.709 77.8526 611.882 69.7024 657.264 23.1165C657.264 23.1165 721.725 78.8714 803.876 78.4083C803.876 78.4083 835.458 379.688 656.709 421.921C656.709 421.921 633.092 415.716 604.473 394.97C589.099 383.856 572.335 368.482 557.054 347.736L529.639 299.39Z" fill="#44A2A0"/>
<path d="M516.21 307.54C514.82 304.299 513.524 301.057 512.227 297.631C505.003 278.922 499.168 257.898 495.278 234.281C495.186 233.818 495.093 233.355 495.093 232.892C489.999 201.958 488.239 166.671 490.925 126.383C492.315 106.286 494.815 85.0766 498.612 62.4783C498.612 62.4783 607.158 53.4945 657.449 2C657.449 2 728.763 63.6823 819.62 63.2192C819.62 63.2192 854.536 396.452 656.893 443.13C656.893 443.13 630.776 436.184 599.101 413.308C582.152 400.99 563.536 384.041 546.68 361.073L516.21 307.54Z" stroke="#837E8D" stroke-width="2" stroke-miterlimit="10"/>
<path d="M305.416 440.63L307.917 456.745L362.56 434.98L356.633 419.05L305.416 440.63Z" fill="#1F2126"/>
<path d="M314.307 453.966C314.307 453.966 280.224 467.581 267.906 482.122C266.146 484.159 264.85 486.197 264.016 488.142C257.626 503.887 271.24 507.221 271.24 507.221L300.229 497.496L375.896 472.212L368.209 450.818L362.56 434.98L314.307 453.966Z" fill="#3F9798"/>
<path d="M288.374 430.349L365.894 404.324L370.432 421.273L294.394 443.779L288.374 430.349Z" fill="white" stroke="#3F9798" stroke-width="2" stroke-miterlimit="10"/>
<path d="M277.909 369.686L286.059 425.441L358.578 408.307L343.204 282.997L486.018 230.113L440.173 217.518" fill="white"/>
<path d="M277.909 369.686L286.059 425.441L358.578 408.307L343.204 282.997L486.018 230.113L440.173 217.518" stroke="#3F9798" stroke-width="2" stroke-miterlimit="10"/>
<path d="M264.48 457.764L255.403 471.286L310.325 492.31L316.715 476.657L264.48 457.764Z" fill="#1F2126"/>
<path d="M509.912 120.549C509.912 120.549 510.746 115.455 512.32 108.323C509.912 108.879 506.022 108.694 507.226 104.711C507.226 104.711 514.543 94.8013 502.595 97.0241C502.595 97.0241 491.111 90.1705 485.276 80.2606C483.702 82.9465 484.906 90.7262 483.516 93.2268C481.201 97.2093 478.237 100.266 478.237 100.266L482.961 102.952C482.961 102.952 486.11 118.696 499.261 111.102C499.446 111.009 499.632 111.194 499.632 111.38L497.038 118.418L489.444 118.881L487.684 123.512L502.04 134.441L517.784 131.107L509.912 120.549Z" fill="#1F2126"/>
<path d="M358.577 111.843C358.577 111.843 364.134 92.3933 393.586 94.0604L386.269 103.044L369.784 112.398L358.577 111.843Z" fill="#4E9FA0"/>
<path d="M713.018 186.954V256.231C713.018 260.028 709.962 263.085 706.165 263.085H605.306C601.509 263.085 598.452 260.028 598.452 256.231V186.954C598.452 183.157 601.509 180.101 605.306 180.101H706.165C709.962 180.101 713.018 183.157 713.018 186.954Z" fill="#3F9798"/>
<path d="M697.552 177.044C697.552 178.063 697.552 179.082 697.46 180.101H686.624C686.624 179.545 686.716 178.897 686.716 178.341C686.716 161.022 672.639 146.944 655.32 146.944C638 146.944 623.923 161.022 623.923 178.341C623.923 178.897 623.923 179.545 624.015 180.101H613.55C613.457 179.082 613.457 178.063 613.457 177.044C613.457 153.798 632.351 134.904 655.597 134.904C678.659 134.997 697.552 153.798 697.552 177.044Z" fill="#3F9798"/>
<path d="M685.326 202.051L682.548 199.828C680.788 198.346 678.102 198.624 676.62 200.476L651.985 231.04L636.147 216.314C634.48 214.739 631.794 214.832 630.22 216.499L627.812 219.092C626.237 220.759 626.33 223.445 627.997 225.02L646.335 241.968C646.613 242.431 646.983 242.894 647.446 243.265L650.225 245.488C651.985 246.97 654.67 246.692 656.152 244.839L685.975 207.886C687.456 206.218 687.179 203.533 685.326 202.051Z" fill="#FCFCFC"/>
<path d="M440.265 218.259C389.233 232.244 337.553 322.452 310.695 337.548C307.083 339.586 280.224 366.815 277.816 369.686L264.016 238.727C261.979 219.74 274.204 201.773 292.727 197.327C296.061 196.494 299.118 196.216 301.618 196.679L440.265 218.259Z" fill="white" stroke="#3F9798" stroke-width="2" stroke-miterlimit="10"/>
<path d="M440.265 218.259L299.488 275.495C301.341 272.624 303.749 270.124 306.527 268.086C327.736 252.99 399.977 232.244 440.265 218.259Z" fill="white" stroke="#3F9798" stroke-width="2" stroke-miterlimit="10"/>
<path d="M386.639 102.025C383.027 97.3946 383.398 90.4483 383.398 84.3357C383.398 82.0203 383.213 79.6123 382.101 77.6673C381.638 76.9264 381.082 76.3707 380.527 75.815L373.951 82.2981C372.469 79.7975 369.783 78.223 366.727 78.223C362.096 78.223 358.299 82.1129 358.299 86.9289C358.299 91.745 362.096 95.6348 366.727 95.6348C367.375 95.6348 368.024 95.5422 368.672 95.4496C368.394 95.6349 368.116 95.8201 367.838 96.0053C367.097 96.4684 366.356 97.0241 365.986 97.8576C364.967 100.08 367.283 102.396 369.32 103.415C370.246 103.878 371.265 104.433 371.913 105.36C372.376 106.008 372.469 106.841 372.654 107.582C373.025 108.879 373.673 110.176 374.414 111.287L387.102 102.674C386.825 102.396 386.732 102.211 386.639 102.025Z" fill="#1F2126"/>
<path d="M551.406 320.322C551.406 325.138 543.256 329.398 530.012 332.547C517.046 335.603 499.078 337.548 479.351 337.548C456.567 337.548 436.192 335.047 422.948 331.065C416.001 328.935 411 326.527 408.777 323.748C449.251 324.304 476.387 315.505 494.54 303.465C500.097 303.743 505.376 304.206 510.377 304.762C534.643 307.54 551.406 313.468 551.406 320.322Z" fill="#E9F7F0" stroke="#3F9798" stroke-width="2" stroke-miterlimit="10"/>
<path d="M551.405 320.322V337.548C551.405 337.548 549.089 338.845 544.922 340.697C534.827 345.235 513.803 353.2 487.592 355.053C480.091 355.608 472.126 355.608 463.883 354.867C446.008 353.293 426.651 348.292 407.479 337.548V323.748C407.943 323.748 408.406 323.748 408.961 323.748C411.277 326.434 416.185 328.935 423.132 331.065C436.283 335.047 456.659 337.548 479.535 337.548C499.262 337.548 517.137 335.696 530.196 332.547C543.255 329.49 551.405 325.138 551.405 320.322Z" fill="#7CBEBD" stroke="#3F9798" stroke-width="2" stroke-miterlimit="10"/>
<path d="M545.661 343.29C545.661 349.31 532.88 354.497 513.523 357.646C502.131 359.405 488.424 360.517 473.698 360.517C458.972 360.517 445.265 359.498 433.873 357.646C414.516 354.589 401.735 349.31 401.735 343.29C401.735 340.882 403.773 338.659 407.478 336.529V337.548C426.742 348.384 446.006 353.385 463.881 354.867C472.124 355.608 480.089 355.608 487.59 355.053C513.801 353.2 534.825 345.235 544.92 340.697C545.383 341.531 545.661 342.364 545.661 343.29Z" fill="#E9F7F0" stroke="#3F9798" stroke-width="2" stroke-miterlimit="10"/>
<path d="M545.661 343.29V360.517C545.661 360.517 542.882 362.091 537.973 364.222C518.339 372.835 464.251 391.265 409.052 364.407C406.551 363.203 404.143 361.906 401.643 360.517V343.29C401.643 349.31 414.424 354.497 433.78 357.646C445.172 359.405 458.879 360.517 473.605 360.517C488.331 360.517 502.038 359.498 513.43 357.646C532.88 354.497 545.661 349.218 545.661 343.29Z" fill="#7CBEBD" stroke="#3F9798" stroke-width="2" stroke-miterlimit="10"/>
<path d="M545.661 371.909C545.661 376.91 536.769 381.448 522.507 384.504C509.633 387.376 492.499 389.043 473.698 389.043C453.878 389.043 436.003 387.098 422.944 384.041C409.793 380.892 401.643 376.632 401.643 371.816C401.643 369.038 404.328 366.537 409.052 364.221C464.251 391.08 518.339 372.65 537.973 364.036C542.882 366.537 545.661 369.13 545.661 371.909Z" fill="#E9F7F0" stroke="#3F9798" stroke-width="2" stroke-miterlimit="10"/>
<path d="M545.661 371.909V389.135C545.661 389.135 543.901 390.154 540.567 391.636C523.155 399.693 463.973 422.292 404.421 390.617C403.495 390.154 402.569 389.598 401.643 389.043V371.816C401.643 376.632 409.793 380.892 422.944 384.041C435.911 387.098 453.878 389.043 473.698 389.043C492.499 389.043 509.633 387.283 522.507 384.504C536.677 381.448 545.661 376.91 545.661 371.909Z" fill="#7CBEBD" stroke="#3F9798" stroke-width="2" stroke-miterlimit="10"/>
<path d="M543.716 396.73C543.716 406.269 511.486 413.956 471.661 413.956C431.836 413.956 399.698 406.269 399.698 396.73C399.698 394.6 401.365 392.469 404.422 390.617C463.881 422.292 523.063 399.693 540.567 391.636C542.605 393.303 543.716 394.97 543.716 396.73Z" fill="#E9F7F0" stroke="#3F9798" stroke-width="2" stroke-miterlimit="10"/>
<path d="M543.716 396.73V413.956C543.716 413.956 534.177 419.235 518.71 424.051C515.098 425.163 511.208 426.274 507.04 427.293C501.761 428.59 496.019 429.608 489.999 430.442C488.98 430.627 487.961 430.72 486.943 430.812C474.069 432.294 459.713 432.387 444.524 429.886C432.299 427.849 419.611 423.959 406.83 417.754C404.422 416.55 402.014 415.346 399.698 413.956V396.73C399.698 406.269 431.929 413.956 471.661 413.956C511.393 413.956 543.716 406.269 543.716 396.73Z" fill="#7CBEBD" stroke="#3F9798" stroke-width="2" stroke-miterlimit="10"/>
<path d="M572.428 440.722C572.428 441.278 572.336 441.834 572.058 442.389C569.279 449.15 549.922 454.8 523.805 456.93C516.488 457.579 508.616 457.856 500.373 457.856C498.15 457.856 495.927 457.856 493.797 457.764C471.569 457.301 452.212 454.337 440.45 450.169C432.856 447.391 428.41 444.149 428.41 440.63C428.41 436.555 434.43 432.757 444.618 429.794C459.714 432.387 474.07 432.294 487.036 430.72C488.055 430.627 489.074 430.442 490.092 430.349C496.112 429.516 501.855 428.404 507.134 427.2C511.302 426.182 515.191 425.07 518.803 423.959C549.645 425.996 572.428 432.757 572.428 440.722Z" fill="#E9F7F0" stroke="#3F9798" stroke-width="2" stroke-miterlimit="10"/>
<path d="M572.428 442.389V457.949C572.428 457.949 570.854 458.783 567.983 460.172C553.072 467.118 503.244 486.845 449.712 467.674C442.673 465.173 435.634 461.931 428.503 457.949V440.722C428.503 444.242 432.949 447.576 440.543 450.262C452.305 454.43 471.662 457.393 493.89 457.856C496.02 457.856 498.243 457.949 500.466 457.949C508.708 457.949 516.488 457.671 523.897 457.023C550.015 454.893 569.372 449.243 572.15 442.482C572.15 442.389 572.243 442.389 572.428 442.389Z" fill="#7CBEBD" stroke="#3F9798" stroke-width="2" stroke-miterlimit="10"/>
<path d="M444.618 429.886C434.522 432.85 428.41 436.647 428.41 440.722V450.077C393.771 448.873 367.283 441.741 367.283 433.128C367.283 426.367 383.398 420.625 406.923 417.754C419.611 423.959 432.392 427.756 444.618 429.886Z" fill="#E9F7F0" stroke="#3F9798" stroke-width="2" stroke-miterlimit="10"/>
<path d="M449.618 467.581C425.26 469.619 396.178 466.47 367.282 450.262V433.035C367.282 441.649 393.77 448.78 428.409 449.984V457.856C435.448 461.931 442.579 465.08 449.618 467.581Z" fill="#7CBEBD" stroke="#3F9798" stroke-width="2" stroke-miterlimit="10"/>
<path d="M558.998 408.307C553.812 408.307 548.718 408.399 543.809 408.677V413.956C543.809 413.956 534.27 419.235 518.803 424.051C549.737 425.996 572.52 432.665 572.52 440.722V442.389C605.862 440.908 631.053 433.869 631.053 425.533C630.961 415.994 598.73 408.307 558.998 408.307Z" fill="#E9F7F0" stroke="#3F9798" stroke-width="2" stroke-miterlimit="10"/>
<path d="M630.961 425.441V442.667C630.961 442.667 604.566 457.393 567.89 460.172C570.761 458.783 572.335 457.949 572.335 457.949V442.389C605.77 440.908 630.961 433.869 630.961 425.441Z" fill="#7CBEBD" stroke="#3F9798" stroke-width="2" stroke-miterlimit="10"/>
<path d="M618.551 258.547C630.22 262.899 639.667 272.995 643.279 284.942C643.557 285.868 643.742 286.887 643.094 287.628C642.816 287.998 642.26 288.091 641.797 288.184C638.741 288.739 638.648 287.072 636.703 284.664C634.018 281.423 626.053 276.144 622.904 278.829C621.977 279.57 621.978 280.96 622.811 281.701C624.386 283.275 627.071 285.22 627.257 286.702C627.349 287.535 627.349 288.554 626.608 288.832C626.238 289.017 625.867 288.925 625.497 288.832C616.513 286.517 608.548 280.589 603.547 272.717" fill="#1F2126"/>
<path d="M261.978 473.601C261.978 473.601 227.71 460.542 208.724 462.858C206.038 463.135 203.723 463.784 201.87 464.617C186.496 471.841 194.276 483.511 194.276 483.511L222.153 496.014L294.95 528.708L303.841 507.776L310.417 492.31L261.978 473.601Z" fill="#3F9798"/>
<path d="M487.314 86.5585C487.592 86.9289 487.129 86.0954 487.314 86.5585C493.612 97.3019 501.577 97.4872 501.577 97.4872C513.432 93.8752 506.578 105.823 506.578 105.823C505.56 110.546 508.338 110.453 510.746 109.62C512.321 109.064 513.71 108.231 513.71 108.231C527.787 69.3319 500.836 69.054 488.426 72.6661C469.81 77.9452 487.314 86.5585 487.314 86.5585Z" fill="#57C9BE"/>
<path d="M295.229 287.258L298.007 263.548L440.173 217.518L320.698 264.289L295.229 287.258Z" fill="#3F9798"/>
<path d="M466.382 333.01C498.965 333.01 525.379 327.288 525.379 320.229C525.379 313.17 498.965 307.448 466.382 307.448C433.799 307.448 407.386 313.17 407.386 320.229C407.386 327.288 433.799 333.01 466.382 333.01Z" fill="#3F9798"/>
<path d="M531.121 241.876C531.121 241.876 531.121 250.582 527.046 262.344C523.619 272.161 517.321 284.016 505.744 294.759C502.503 297.816 498.706 300.779 494.538 303.558C476.385 315.598 449.341 324.397 408.775 323.841C408.312 323.841 407.849 323.841 407.293 323.841C402.292 323.748 397.106 323.47 391.641 323.1C388.215 322.822 384.973 323.934 383.676 327.082L323.569 470.637L262.164 444.149L296.247 282.719C296.988 280.126 298.099 277.718 299.488 275.495C301.341 272.624 303.749 270.124 306.527 268.086C327.736 252.99 399.884 232.151 440.172 218.259L485.832 230.113L520.285 239.097L531.121 241.876Z" fill="white" stroke="#3F9798" stroke-width="2" stroke-miterlimit="10"/>
<path d="M254.661 440.722L329.588 473.508L321.53 489.161L250.123 454.707L254.661 440.722Z" fill="white" stroke="#3F9798" stroke-width="2" stroke-miterlimit="10"/>
<path d="M533.344 133.7L527.972 127.495C524.731 124.438 519.081 117.585 510.838 120.549C510.005 124.716 506.485 127.68 502.781 127.124C499.446 126.661 496.112 122.679 496.02 118.974C495.557 118.604 496.02 118.974 495.464 118.511C494.538 117.77 487.869 117.029 483.146 119.067C469.717 124.716 432.115 156.947 432.115 156.947L393.401 95.7275C393.401 95.7275 378.397 113.973 359.874 112.491L400.069 186.584C406.645 196.586 405.904 195.475 409.609 200.384C428.132 225.02 445.359 195.938 457.584 183.157C458.047 182.694 457.028 185.195 456.75 185.75L440.172 217.703L533.992 253.453L533.9 199.735C533.9 199.18 533.529 199.272 533.9 199.735C550.756 224.834 581.597 272.902 593.822 274.384C611.79 276.514 624.756 249.655 624.756 249.655L533.344 133.7Z" fill="white" stroke="#3F9798" stroke-width="2" stroke-miterlimit="10"/>
<path d="M440.172 217.518L528.805 257.25L530.287 252.99L440.172 217.518Z" fill="#3F9798"/>
<g opacity="0.5">
<path opacity="0.5" d="M513.801 190.659C513.338 187.695 511.949 185.38 509.633 183.528C508.892 182.879 508.892 182.601 509.818 182.138C510.467 181.86 511.115 181.675 511.763 181.212C515.283 178.897 516.672 175.285 516.95 171.302C517.32 166.764 514.449 161.763 509.818 160.466C507.966 159.91 508.059 159.818 508.429 157.965C508.429 157.78 508.522 157.595 508.522 157.41C508.707 156.669 508.429 156.298 507.688 156.113C506.947 155.928 506.206 155.743 505.373 155.557C503.057 155.002 503.057 155.002 502.594 157.317C502.409 158.151 502.039 158.243 501.298 158.058C500.279 157.78 499.26 157.502 498.241 157.225C495.463 156.576 495.833 156.761 496.296 154.261C496.389 153.52 496.204 153.335 495.556 153.149C494.352 152.872 493.148 152.594 491.943 152.223C491.017 151.945 490.462 152.131 490.276 153.149C490.184 153.427 490.091 153.613 490.091 153.89C489.999 154.817 489.443 155.002 488.702 154.817C487.405 154.446 486.109 154.168 484.812 153.89C483.886 153.613 483.33 153.89 483.145 154.909C482.774 156.669 482.311 158.521 481.848 160.281C481.571 161.207 481.941 161.67 482.867 161.763C483.423 161.855 484.071 162.041 484.627 162.133C485.923 162.411 485.923 162.504 485.646 163.8C484.534 168.524 483.423 173.247 482.219 178.063C482.219 178.063 479.903 187.603 478.792 192.419C478.607 193.345 478.144 193.623 477.218 193.345C476.477 193.16 475.736 192.974 475.087 192.789C474.439 192.604 474.161 192.882 473.976 193.53C473.513 195.382 472.957 197.142 472.494 198.902C472.124 200.198 472.309 200.384 473.513 200.661C474.902 200.939 476.291 201.217 477.681 201.495C478.514 201.68 478.792 202.051 478.514 202.792C478.236 203.625 478.051 204.459 477.773 205.385C477.495 206.126 477.773 206.589 478.607 206.774C479.996 207.052 481.478 207.33 482.867 207.515C483.145 207.515 483.608 207.237 483.793 206.959C484.071 206.218 484.256 205.292 484.442 204.551C484.627 203.718 485.09 203.255 486.016 203.533C487.313 203.903 488.517 204.181 489.813 204.459C490.739 204.644 490.925 205.107 490.739 205.941C490.554 206.682 490.369 207.515 490.184 208.349C489.999 208.997 490.276 209.367 490.925 209.46C491.758 209.645 492.499 209.83 493.333 210.016C496.204 210.664 495.741 211.034 496.482 208.071C497.037 205.941 496.945 205.941 499.168 206.311C501.02 206.682 502.872 206.774 504.632 206.126C508.059 205.014 510.559 202.606 512.134 199.457C513.616 196.864 514.264 193.808 513.801 190.659ZM493.888 165.56C494.166 164.541 494.629 164.263 495.648 164.541C497.223 165.004 503.613 166.486 505.095 166.857C509.263 167.783 510.096 171.765 508.522 175.007C507.503 177.23 505.188 178.341 502.78 177.878C499.353 177.137 496.019 176.396 492.684 175.655C491.944 175.47 491.573 175.099 491.851 174.266C492.499 171.302 493.24 168.431 493.888 165.56ZM503.891 196.772C502.502 198.624 500.279 198.624 498.149 198.253C496.389 197.976 489.628 196.216 487.961 195.845C487.127 195.66 486.757 195.29 487.035 194.364C487.868 190.937 488.702 187.417 489.443 183.898C489.628 183.064 489.999 182.787 490.925 182.972C494.444 183.713 498.427 184.454 502.039 185.658C505.095 186.584 506.484 189.733 505.651 192.882C505.28 194.178 504.817 195.66 503.891 196.772Z" fill="#44A2A0"/>
</g>
<path d="M289.393 453.874C297.265 427.2 305.786 400.805 314.77 374.502C319.215 361.35 323.846 348.292 328.662 335.233C330.978 328.842 333.293 322.452 335.701 316.154C337.924 310.504 340.517 304.762 344.87 300.409C349.501 295.778 355.521 292.722 361.448 290.221C368.302 287.35 375.248 284.85 382.102 282.256C383.306 281.793 382.843 279.756 381.546 280.219C375.248 282.627 368.858 284.942 362.652 287.443C357.28 289.573 351.909 292.074 347.185 295.593C342.369 299.298 338.85 304.021 336.257 309.485C333.478 315.413 331.348 321.711 329.125 327.823C319.401 354.312 310.139 380.985 301.526 407.844C296.617 422.94 291.986 438.037 287.448 453.318C286.985 454.615 289.022 455.17 289.393 453.874Z" fill="#44A2A0"/>
<path d="M440.914 259.473C430.448 262.807 420.075 266.326 409.795 269.938C408.498 270.401 409.054 272.346 410.35 271.976C420.723 268.364 431.096 264.844 441.469 261.51C442.673 261.14 442.21 259.102 440.914 259.473Z" fill="#44A2A0"/>
<path d="M450.546 258.639C466.753 253.638 483.054 249.007 499.54 245.025C500.836 244.747 500.281 242.709 498.984 242.987C482.498 246.97 466.198 251.6 449.99 256.602C448.786 257.065 449.249 259.01 450.546 258.639Z" fill="#44A2A0"/>
<path d="M400.716 273.18C397.382 274.384 393.955 275.588 390.621 276.885C390.065 277.07 389.695 277.625 389.88 278.181C390.065 278.644 390.621 279.107 391.177 278.922C394.511 277.718 397.938 276.514 401.272 275.217C401.828 275.032 402.198 274.477 402.013 273.921C401.828 273.365 401.272 272.995 400.716 273.18Z" fill="#44A2A0"/>
<path d="M374.875 20.1686L327.875 16.5488L319.924 119.783L366.924 123.403L374.875 20.1686Z" fill="white"/>
<path d="M376.452 23.95C376.637 21.1715 374.6 18.7635 371.821 18.5783L331.163 15.4293C328.384 15.2441 325.976 17.2816 325.791 20.0601L318.382 115.733C318.197 118.511 320.234 120.919 323.013 121.104L363.671 124.253C366.45 124.438 368.858 122.401 369.043 119.622L376.452 23.95ZM363.393 122.216L323.754 119.159C321.716 118.974 320.234 117.214 320.419 115.177L327.643 20.8937C327.829 18.8561 329.588 17.3743 331.626 17.5595L371.266 20.6158C373.303 20.8011 374.785 22.5608 374.6 24.5983L367.283 118.881C367.19 120.919 365.431 122.401 363.393 122.216Z" fill="#44A2A0"/>
<path d="M362.561 24.5983L339.406 22.8386C337.739 22.746 336.443 21.2642 336.628 19.5971L336.721 18.3004C336.813 17.5595 337.462 17.0038 338.202 17.0038L364.691 19.0414C365.432 19.134 365.987 19.7823 365.987 20.5232L365.895 21.7272C365.709 23.4869 364.228 24.6909 362.561 24.5983Z" fill="#44A2A0"/>
<path d="M359.411 104.248L330.7 102.025C329.31 101.933 328.199 100.636 328.292 99.2469L328.384 97.8576C328.477 96.4684 329.773 95.357 331.163 95.4496L359.874 97.6724C361.263 97.765 362.374 99.0616 362.282 100.451L362.189 101.84C362.096 103.229 360.8 104.341 359.411 104.248Z" fill="#44A2A0"/>
<path d="M334.682 69.3319C335.295 69.3319 335.793 68.8343 335.793 68.2205C335.793 67.6067 335.295 67.1091 334.682 67.1091C334.068 67.1091 333.57 67.6067 333.57 68.2205C333.57 68.8343 334.068 69.3319 334.682 69.3319Z" fill="#B5B5B5"/>
<path d="M339.127 69.6097C339.741 69.6097 340.238 69.1121 340.238 68.4983C340.238 67.8845 339.741 67.3869 339.127 67.3869C338.513 67.3869 338.016 67.8845 338.016 68.4983C338.016 69.1121 338.513 69.6097 339.127 69.6097Z" fill="#B5B5B5"/>
<path d="M343.572 69.9802C344.186 69.9802 344.684 69.4826 344.684 68.8688C344.684 68.255 344.186 67.7574 343.572 67.7574C342.959 67.7574 342.461 68.255 342.461 68.8688C342.461 69.4826 342.959 69.9802 343.572 69.9802Z" fill="#B5B5B5"/>
<path d="M333.571 84.7988C334.185 84.7988 334.683 84.3012 334.683 83.6874C334.683 83.0736 334.185 82.576 333.571 82.576C332.958 82.576 332.46 83.0736 332.46 83.6874C332.46 84.3012 332.958 84.7988 333.571 84.7988Z" fill="#B5B5B5"/>
<path d="M337.925 85.0766C338.539 85.0766 339.036 84.579 339.036 83.9652C339.036 83.3514 338.539 82.8538 337.925 82.8538C337.311 82.8538 336.813 83.3514 336.813 83.9652C336.813 84.579 337.311 85.0766 337.925 85.0766Z" fill="#B5B5B5"/>
<path d="M342.369 85.4471C342.983 85.4471 343.481 84.9495 343.481 84.3357C343.481 83.7219 342.983 83.2243 342.369 83.2243C341.755 83.2243 341.258 83.7219 341.258 84.3357C341.258 84.9495 341.755 85.4471 342.369 85.4471Z" fill="#B5B5B5"/>
<path d="M346.629 85.8176C347.243 85.8176 347.74 85.32 347.74 84.7062C347.74 84.0924 347.243 83.5948 346.629 83.5948C346.015 83.5948 345.518 84.0924 345.518 84.7062C345.518 85.32 346.015 85.8176 346.629 85.8176Z" fill="#B5B5B5"/>
<path d="M350.982 86.0954C351.596 86.0954 352.094 85.5978 352.094 84.984C352.094 84.3702 351.596 83.8726 350.982 83.8726C350.369 83.8726 349.871 84.3702 349.871 84.984C349.871 85.5978 350.369 86.0954 350.982 86.0954Z" fill="#B5B5B5"/>
<path d="M357.373 66.0903L355.892 65.9051" stroke="#2E273F" stroke-width="0.5" stroke-miterlimit="10"/>
<path d="M355.057 65.9051L350.89 65.5346" stroke="#2E273F" stroke-width="0.5" stroke-miterlimit="10"/>
<path d="M358.206 66.0903L362.559 66.4608C363.763 66.5534 364.596 67.5722 364.504 68.7762L364.319 71.7399C364.226 72.9439 363.207 73.7775 362.003 73.6848L332.366 71.3694C331.162 71.2768 330.328 70.258 330.421 69.054L330.606 66.0903C330.699 64.8863 331.718 64.0528 332.922 64.1454L349.963 65.442" stroke="#2E273F" stroke-width="0.5" stroke-miterlimit="10"/>
<path d="M338.479 80.168L336.997 80.0753" stroke="#2E273F" stroke-width="0.5" stroke-miterlimit="10"/>
<path d="M343.573 80.5384L339.312 80.2606" stroke="#2E273F" stroke-width="0.5" stroke-miterlimit="10"/>
<path d="M344.407 80.6311L361.449 81.9277C362.653 82.0203 363.486 83.0391 363.393 84.2431L363.208 87.2068C363.116 88.4108 362.097 89.2443 360.893 89.1517L331.256 86.8363C330.052 86.7437 329.218 85.7249 329.311 84.5209L329.496 81.5572C329.589 80.3532 330.607 79.5197 331.811 79.6123L336.164 79.9827" stroke="#2E273F" stroke-width="0.5" stroke-miterlimit="10"/>
<path fill-rule="evenodd" clip-rule="evenodd" d="M354.316 47.3819L350.797 49.2342L352.557 50.5308L356.076 48.6785L356.724 39.9726L350.056 35.0639L342.739 38.8612C342.369 43.3068 342.091 47.7523 341.721 52.1053L343.48 53.4019C343.851 48.9564 344.129 44.5108 344.499 40.1578L349.871 37.3793L354.779 40.9914L354.316 47.3819ZM345.425 52.4758L345.24 54.7912L348.389 57.1066L350.334 56.0878L345.425 52.4758ZM357.836 49.9751L352.464 52.7536L345.796 47.845L345.61 50.1604C347.833 51.8275 350.056 53.4019 352.279 55.069C354.687 53.7724 357.187 52.5684 359.595 51.2718L360.614 38.0277L350.426 30.5258L339.22 36.3606L338.201 49.6047L339.961 50.9013L340.98 37.6572L350.241 32.8412L358.669 39.0464L357.836 49.9751Z" fill="#5AD1D3"/>
<path d="M380.342 75.9076L373.766 82.3908C371.821 79.0566 367.468 77.5747 364.875 74.611C364.134 73.7775 363.485 72.6661 363.671 71.5547C363.856 70.2581 365.06 69.4245 366.264 69.3319C367.468 69.2393 368.579 69.7024 369.691 70.1654C372.377 71.2768 374.97 72.6661 377.563 74.0553C378.582 74.5184 379.508 75.1667 380.342 75.9076Z" fill="#1F2126"/>
<path opacity="0.1" d="M115.09 295.871V241.783C115.09 238.078 113.052 234.559 109.903 232.707L63.1319 205.663C59.8903 203.81 55.9079 203.81 52.6663 205.663L5.70994 232.799C2.46838 234.652 0.523438 238.078 0.523438 241.876V295.963C0.523438 299.668 2.56099 303.188 5.70994 305.04L52.4811 332.084C55.7226 333.936 59.7051 333.936 62.9467 332.084L109.718 305.04C113.052 303.095 115.09 299.668 115.09 295.871Z" fill="#00AA69"/>
<path opacity="0.1" d="M137.781 158.799L156.026 142.962C157.693 141.572 158.434 139.35 157.971 137.219L153.34 113.51C152.877 111.38 151.395 109.62 149.358 108.879L126.482 101.007C124.444 100.266 122.129 100.729 120.462 102.211L102.216 118.048C100.549 119.437 99.8083 121.66 100.271 123.79L104.902 147.5C105.365 149.63 106.847 151.39 108.885 152.131L131.761 160.003C133.798 160.651 136.114 160.281 137.781 158.799Z" fill="#00AA69"/>
</svg>
